<?xml version="1.0" encoding="utf-8"?>
<!-- Generator: Adobe Illustrator 24.1.2, SVG Export Plug-In . SVG Version: 6.00 Build 0)  -->
<svg version="1.1" id="Ebene_1" xmlns="http://www.w3.org/2000/svg" xmlns:xlink="http://www.w3.org/1999/xlink" x="0px" y="0px"
	 viewBox="0 0 300 100" style="enable-background:new 0 0 300 100;" xml:space="preserve">
<style type="text/css">
	.st0{fill:#FFFFFF;}
</style>
<g>
	<path class="st0" d="M114.7,70c0,0.6-0.3,0.9-0.9,0.9h-10.5c-0.6,0-0.9-0.3-0.9-1c0-2,0.1-5,0.2-9c0.1-4,0.2-7,0.2-9
		c0-0.6-0.1-0.9-0.3-0.9c-0.2,0.1-1.5,3.2-4,9.2c-1.4,3.5-2.9,7.1-4.3,10.6c-0.2,0.5-0.4,0.7-0.7,0.8c-0.1,0-0.5,0-1.2,0
		c-1,0-1.6-0.2-1.8-0.6c-1.1-2.2-2.5-5.4-4.2-9.5c-1.9-4.4-3.3-7.6-4.2-9.6c0-0.1-0.1-0.2-0.3-0.3c-0.1,0.2-0.2,0.5-0.2,0.9
		c0,1.9,0,4.9,0.1,8.8c0.1,3.9,0.1,6.8,0.1,8.8c0,0.7-0.3,1-0.8,1h-9.9c-0.4,0-0.6-0.1-0.7-0.2s-0.1-0.4-0.1-0.7
		c0-2.2,0.1-5.4,0.3-9.8c0.2-4.3,0.3-7.6,0.3-9.8c0-2.3-0.1-6.6-0.3-13c0-1.6-0.1-4.1-0.3-7.4l0-0.5c0-0.4,0.4-0.6,1.3-0.6
		c1.1,0,2.7,0,4.9-0.1c2.2-0.1,3.8-0.1,4.9-0.1c0.2,0,0.5,0.4,0.9,1.3L91,49.2c0.6,1.3,1.1,1.9,1.5,1.9c0.2,0,0.7-0.7,1.4-2.2
		c2-4.2,5-10.5,8.9-18.9c0.3-0.8,0.7-1.2,1.1-1.2c0.6,0,1.4,0,2.6,0.1c1.2,0.1,2,0.1,2.6,0.1c0.5,0,1.3,0,2.3-0.1
		c1-0.1,1.8-0.1,2.3-0.1c0.6,0,0.9,0.2,0.9,0.7c0,2.3-0.1,5.8-0.3,10.5c-0.2,4.7-0.3,8.2-0.3,10.5c0,2.2,0.1,5.4,0.3,9.7
		C114.6,64.6,114.7,67.8,114.7,70z"/>
	<path class="st0" d="M132.3,48.9c0,2.3,0.1,5.9,0.2,10.6s0.2,8.2,0.2,10.6c0,0.4-0.1,0.6-0.3,0.7c0,0-0.3,0.1-0.8,0.1
		c-1.3,0.2-3,0.2-5.2,0.2c-2.9,0-4.7-0.1-5.5-0.2c-0.6-0.1-0.9-0.4-0.9-0.9c0,0.3,0.1-1.4,0.3-5.2c0.4-8,0.5-13.3,0.5-15.8
		c0-2.1-0.1-5.3-0.2-9.6c-0.1-4.2-0.2-7.4-0.2-9.6c0-0.4,0.2-0.7,0.7-0.7c0.6,0,1.5,0,2.8,0.1c1.2,0.1,2.2,0.1,2.8,0.1
		c0.6,0,1.5,0,2.7-0.1c1.2-0.1,2.1-0.1,2.7-0.1c0.6,0,0.9,0.2,0.9,0.7c0,2.1-0.1,5.3-0.3,9.6C132.4,43.6,132.3,46.8,132.3,48.9z"/>
	<path class="st0" d="M182.8,70c0,0.6-0.3,0.9-0.9,0.9h-10.5c-0.6,0-0.9-0.3-0.9-1c0-2,0.1-5,0.2-9c0.1-4,0.2-7,0.2-9
		c0-0.6-0.1-0.9-0.3-0.9c-0.2,0.1-1.5,3.2-4,9.2c-1.4,3.5-2.9,7.1-4.3,10.6c-0.2,0.5-0.4,0.7-0.7,0.8c-0.1,0-0.5,0-1.2,0
		c-1,0-1.6-0.2-1.8-0.6c-1.1-2.2-2.5-5.4-4.2-9.5c-1.9-4.4-3.3-7.6-4.2-9.6c0-0.1-0.1-0.2-0.3-0.3c-0.1,0.2-0.2,0.5-0.2,0.9
		c0,1.9,0,4.9,0.1,8.8c0.1,3.9,0.1,6.8,0.1,8.8c0,0.7-0.3,1-0.8,1h-9.9c-0.4,0-0.6-0.1-0.7-0.2s-0.1-0.4-0.1-0.7
		c0-2.2,0.1-5.4,0.3-9.8c0.2-4.3,0.3-7.6,0.3-9.8c0-2.3-0.1-6.6-0.3-13c0-1.6-0.1-4.1-0.3-7.4l0-0.5c0-0.4,0.4-0.6,1.3-0.6
		c1.1,0,2.7,0,4.9-0.1c2.2-0.1,3.8-0.1,4.9-0.1c0.2,0,0.5,0.4,0.9,1.3l8.7,19.1c0.6,1.3,1.1,1.9,1.5,1.9c0.2,0,0.7-0.7,1.4-2.2
		c2-4.2,5-10.5,8.9-18.9c0.3-0.8,0.7-1.2,1.1-1.2c0.6,0,1.4,0,2.6,0.1c1.2,0.1,2,0.1,2.6,0.1c0.5,0,1.3,0,2.3-0.1
		c1-0.1,1.8-0.1,2.3-0.1c0.6,0,0.9,0.2,0.9,0.7c0,2.3-0.1,5.8-0.3,10.5c-0.2,4.7-0.3,8.2-0.3,10.5c0,2.2,0.1,5.4,0.3,9.7
		C182.7,64.6,182.8,67.8,182.8,70z"/>
	<path class="st0" d="M229.7,50c0,6.2-2,11.4-5.9,15.6c-4,4.3-9.1,6.4-15.3,6.4c-6.1,0-11.2-2.1-15.3-6.4c-4-4.2-6-9.4-6-15.5
		c0-6.2,2-11.4,6-15.6c4.1-4.3,9.1-6.5,15.3-6.5c6.1,0,11.2,2.2,15.3,6.5C227.7,38.7,229.7,43.9,229.7,50z M218.4,50
		c0-3-0.9-5.5-2.7-7.6c-1.9-2.2-4.3-3.3-7.2-3.3c-2.8,0-5.2,1.1-7.1,3.4c-1.9,2.2-2.8,4.7-2.8,7.5c0,3,0.9,5.6,2.7,7.6
		c1.9,2.1,4.3,3.2,7.3,3.2c2.8,0,5.2-1.1,7.1-3.4C217.5,55.3,218.4,52.8,218.4,50z"/>
</g>
</svg>
